# File created by Blade
# Date/Time:  Thu Jan 22 16:31:11 2015
# Frame Rate: 120.000 fps
#------------------------------------------------------
:FULLY-SPECIFIED
:DEGREES
838
root 26.481914 17.731742 -0.652476 1.189361 29.446807 -23.426364
RightUpLeg 15.721875 -6.098274 -33.735527
RightLeg 3.982336 -0.000000 -0.000000
RightFoot -21.951567 -16.643476 40.643290
RightToeBase 18.330507 -0.000000 -0.000000
LeftUpLeg -105.748222 26.252544 3.678251
LeftLeg 133.043613 -0.000000 -0.000000
LeftFoot -37.413289 8.220971 -16.102720
LeftToeBase -10.948666 -0.000000 0.000000
Spine 36.639715 1.430959 -46.444211
RightShoulder -14.712440 4.386748 -45.562576
RightArm 41.778922 70.653196 -1.174570
RightForeArm -1.260403 0.000000 18.864427
RightHand 14.536094 -0.000000 -45.227972
RightHandThumb1 -24.326973 -0.000000 -32.862282
LeftShoulder -18.291533 42.333587 9.853615
LeftArm 93.830635 -36.357228 -133.587568
LeftForeArm -4.249255 -0.000000 16.448261
LeftHand -29.715546 0.000000 98.244858
LeftHandThumb1 -26.253704 0.000000 33.147579
Head 4.955204 2.040337 -45.255049
839
root 26.467375 17.747976 -0.632371 1.058494 29.568267 -23.468637
RightUpLeg 15.883271 -6.070298 -33.643381
RightLeg 4.031463 -0.000000 -0.000000
RightFoot -22.055296 -16.668464 40.613543
RightToeBase 18.389211 -0.000000 -0.000000
LeftUpLeg -105.609821 26.229885 3.757883
LeftLeg 132.971723 -0.000000 -0.000000
LeftFoot -37.423037 8.236552 -16.042024
LeftToeBase -10.953433 -0.000000 0.000000
Spine 36.814055 1.635122 -46.383793
RightShoulder -14.636536 4.271297 -45.711372
RightArm 41.936413 70.627174 -0.140591
RightForeArm -1.075074 -0.000000 19.274665
RightHand 14.597061 -0.000000 -45.484472
RightHandThumb1 -24.326973 -0.000000 -32.862282
LeftShoulder -18.258224 42.307733 9.834162
LeftArm 93.837421 -36.241726 -133.623504
LeftForeArm -4.031773 -0.000000 17.014295
LeftHand -29.851186 0.000000 98.326619
LeftHandThumb1 -26.253704 0.000000 33.147579
Head 5.080898 1.920983 -44.997023
840
root 26.453041 17.768227 -0.617015 0.994345 29.695056 -23.453909
RightUpLeg 15.991920 -6.013257 -33.580773
RightLeg 4.111126 -0.000000 -0.000000
RightFoot -22.201951 -16.690144 40.590771
RightToeBase 18.220241 -0.000000 -0.000000
LeftUpLeg -105.494476 26.182729 3.759532
LeftLeg 132.868749 -0.000000 -0.000000
LeftFoot -37.449138 8.293859 -15.976563
LeftToeBase -10.870593 -0.000000 0.000000
Spine 36.972727 1.810722 -46.386907
RightShoulder -14.531661 4.162769 -45.895550
RightArm 41.842973 70.522114 0.731030
RightForeArm -0.897884 -0.000000 19.698259
RightHand 14.613453 -0.000000 -46.077285
RightHandThumb1 -24.326973 -0.000000 -32.862282
LeftShoulder -18.252523 42.262174 9.800134
LeftArm 93.769169 -36.161548 -133.456859
LeftForeArm -3.973322 0.000000 17.501314
LeftHand -29.982785 -0.000000 98.357997
LeftHandThumb1 -26.253704 0.000000 33.147579
Head 5.175273 1.709684 -44.768934
841
root 26.434982 17.790532 -0.600311 0.898576 29.852143 -23.464974
RightUpLeg 16.129867 -5.918241 -33.472389
RightLeg 4.192855 -0.000000 -0.000000
RightFoot -22.390605 -16.771849 40.573853
RightToeBase 18.224276 -0.000000 -0.000000
LeftUpLeg -105.366953 26.113521 3.798071
LeftLeg 132.751598 -0.000000 -0.000000
LeftFoot -37.472222 8.327022 -15.943916
LeftToeBase -10.791226 -0.000000 0.000000
Spine 37.203741 1.951036 -46.347902
RightShoulder -14.469335 4.127216 -46.232023
RightArm 41.791974 70.309045 1.839840
RightForeArm -0.785374 -0.000000 20.221009
RightHand 14.535669 -0.000000 -46.693982
RightHandThumb1 -24.326973 -0.000000 -32.862282
LeftShoulder -18.312638 42.174514 9.656972
LeftArm 93.795799 -36.082064 -133.297807
LeftForeArm -3.858346 -0.000000 17.924904
LeftHand -30.108174 0.000000 98.429355
LeftHandThumb1 -26.253704 0.000000 33.147579
Head 5.155402 1.281757 -44.677956
842
root 26.416309 17.818646 -0.585117 0.820545 30.010431 -23.472020
RightUpLeg 16.212656 -5.842093 -33.361179
RightLeg 4.351012 -0.000000 -0.000000
RightFoot -22.586355 -16.836983 40.562090
RightToeBase 18.192750 -0.000000 -0.000000
LeftUpLeg -105.219150 26.039552 3.865373
LeftLeg 132.619517 -0.000000 -0.000000
LeftFoot -37.486539 8.293211 -15.908745
LeftToeBase -10.692853 -0.000000 0.000000
Spine 37.415396 2.120028 -46.334422
RightShoulder -14.360283 4.133447 -46.518504
RightArm 41.496674 69.992223 2.725866
RightForeArm -0.300866 -0.000000 20.702395
RightHand 14.843330 -0.000000 -47.227378
RightHandThumb1 -24.326973 -0.000000 -32.862282
LeftShoulder -18.312929 42.121628 9.611961
LeftArm 93.811137 -35.993443 -133.137644
LeftForeArm -3.778411 -0.000000 18.331904
LeftHand -30.268971 0.000000 98.435511
LeftHandThumb1 -26.253704 0.000000 33.147579
Head 5.217871 0.949584 -44.453280
843
root 26.393427 17.853950 -0.572559 0.796299 30.191083 -23.451452
RightUpLeg 16.276617 -5.749186 -33.241700
RightLeg 4.487356 -0.000000 -0.000000
RightFoot -22.799965 -16.945492 40.566712
RightToeBase 18.140909 -0.000000 -0.000000
LeftUpLeg -105.102681 25.939547 3.894775
LeftLeg 132.444458 -0.000000 -0.000000
LeftFoot -37.477120 8.270221 -15.894089
LeftToeBase -10.647984 -0.000000 0.000000
Spine 37.602257 2.278735 -46.362340
RightShoulder -14.178468 4.193042 -46.836192
RightArm 40.753686 69.503035 3.241656
RightForeArm 0.373062 -0.000000 21.091491
RightHand 15.445796 0.000000 -48.012395
RightHandThumb1 -24.326973 -0.000000 -32.862282
LeftShoulder -18.291536 42.074025 9.600399
LeftArm 93.870285 -35.903724 -132.998222
LeftForeArm -3.640845 -0.000000 18.716673
LeftHand -30.321099 0.000000 98.489210
LeftHandThumb1 -26.253704 0.000000 33.147579
Head 5.317967 0.657690 -44.157449
844
root 26.370667 17.890776 -0.554165 0.752173 30.416569 -23.437883
RightUpLeg 16.388877 -5.708302 -33.121840
RightLeg 4.625515 -0.000000 -0.000000
RightFoot -23.016870 -17.015842 40.569401
RightToeBase 18.156858 -0.000000 -0.000000
LeftUpLeg -104.959922 25.810942 3.937142
LeftLeg 132.262121 -0.000000 -0.000000
LeftFoot -37.493596 8.228285 -15.890981
LeftToeBase -10.512887 -0.000000 0.000000
Spine 37.802855 2.443171 -46.403063
RightShoulder -13.919016 4.153137 -47.081279
RightArm 39.922620 69.076927 3.728060
RightForeArm 0.903102 0.000000 21.502378
RightHand 15.725546 0.000000 -48.834353
RightHandThumb1 -24.326973 -0.000000 -32.862282
LeftShoulder -18.228980 42.056961 9.668820
LeftArm 93.724911 -35.861502 -132.572032
LeftForeArm -3.816532 -0.000000 19.105667
LeftHand -30.246615 0.000000 98.462164
LeftHandThumb1 -26.253704 0.000000 33.147579
Head 5.502618 0.469344 -43.732568
845
root 26.344285 17.930707 -0.538042 0.688047 30.630414 -23.422607
RightUpLeg 16.500175 -5.590393 -32.980095
RightLeg 4.770782 -0.000000 -0.000000
RightFoot -23.266986 -17.117327 40.560532
RightToeBase 18.136997 -0.000000 -0.000000
LeftUpLeg -104.789889 25.692247 3.979642
LeftLeg 132.053226 -0.000000 -0.000000
LeftFoot -37.523278 8.221379 -15.856437
LeftToeBase -10.403516 -0.000000 0.000000
Spine 38.058161 2.630129 -46.410404
RightShoulder -13.709886 4.279788 -47.515640
RightArm 39.137631 68.488656 4.543761
RightForeArm 1.417022 0.000000 22.156088
RightHand 15.662135 -0.000000 -49.663086
RightHandThumb1 -24.326973 -0.000000 -32.862282
LeftShoulder -18.159525 41.955925 9.714899
LeftArm 93.638195 -35.842286 -132.208004
LeftForeArm -3.885389 -0.000000 19.484414
LeftHand -30.340587 -0.000000 98.435724
LeftHandThumb1 -26.253704 0.000000 33.147579
Head 5.569173 -0.016809 -43.465572
846
root 26.316341 17.977622 -0.525711 0.692849 30.863906 -23.386827
RightUpLeg 16.576831 -5.497575 -32.839085
RightLeg 4.879261 -0.000000 -0.000000
RightFoot -23.495603 -17.245079 40.591371
RightToeBase 18.128343 -0.000000 -0.000000
LeftUpLeg -104.702808 25.535979 3.923710
LeftLeg 131.750780 -0.000000 -0.000000
LeftFoot -37.498058 8.479816 -15.761851
LeftToeBase -10.595522 -0.000000 0.000000
Spine 38.274408 2.807912 -46.450171
RightShoulder -13.432824 4.352693 -47.838073
RightArm 38.179372 67.950932 5.185066
RightForeArm 1.920360 -0.000000 22.803809
RightHand 15.705474 -0.000000 -50.383152
RightHandThumb1 -24.326973 -0.000000 -32.862282
LeftShoulder -18.018960 41.851228 9.855837
LeftArm 93.697157 -35.812485 -132.056807
LeftForeArm -3.819722 -0.000000 19.757262
LeftHand -30.330716 -0.000000 98.448544
LeftHandThumb1 -26.253704 0.000000 33.147579
Head 5.680904 -0.379031 -43.052722
847
root 26.287171 18.033072 -0.514782 0.740590 31.143237 -23.303509
RightUpLeg 16.628332 -5.494266 -32.743781
RightLeg 5.062311 -0.000000 -0.000000
RightFoot -23.695504 -17.315021 40.630430
RightToeBase 18.078270 -0.000000 -0.000000
LeftUpLeg -104.578269 25.340238 3.868425
LeftLeg 131.463540 -0.000000 -0.000000
LeftFoot -37.523298 8.461668 -15.768888
LeftToeBase -10.402741 -0.000000 0.000000
Spine 38.509235 2.987818 -46.581552
RightShoulder -13.117263 4.752551 -48.263276
RightArm 37.279420 67.208082 6.290488
RightForeArm 2.248446 -0.000000 23.845651
RightHand 15.363272 0.000000 -50.758998
RightHandThumb1 -24.326973 -0.000000 -32.862282
LeftShoulder -17.880180 41.743479 10.091905
LeftArm 93.711754 -35.761962 -131.933358
LeftForeArm -3.653829 0.000000 20.120800
LeftHand -30.471924 -0.000000 98.369803
LeftHandThumb1 -26.253704 0.000000 33.147579
Head 5.826758 -0.649947 -42.434267
848
root 26.255752 18.091113 -0.505530 0.762490 31.443914 -23.245946
RightUpLeg 16.701528 -5.543920 -32.641106
RightLeg 5.231646 -0.000000 -0.000000
RightFoot -23.850890 -17.333972 40.691965
RightToeBase 17.946621 -0.000000 -0.000000
LeftUpLeg -104.438605 25.114226 3.846615
LeftLeg 131.167990 -0.000000 -0.000000
LeftFoot -37.556606 8.438688 -15.783723
LeftToeBase -10.098476 -0.000000 0.000000
Spine 38.833074 3.110965 -46.636580
RightShoulder -12.804367 4.846600 -48.648906
RightArm 36.211234 66.764466 7.159471
RightForeArm 2.752217 -0.000000 24.731853
RightHand 15.376278 -0.000000 -51.166128
RightHandThumb1 -24.326973 -0.000000 -32.862282
LeftShoulder -17.733303 41.493595 10.231991
LeftArm 93.715922 -35.849328 -131.654217
LeftForeArm -3.598031 -0.000000 20.331313
LeftHand -30.559750 -0.000000 98.286917
LeftHandThumb1 -26.253704 0.000000 33.147579
Head 5.796493 -1.379452 -42.131204
849
root 26.219575 18.155435 -0.490882 0.775347 31.737095 -23.210714
RightUpLeg 16.771940 -5.653817 -32.522818
RightLeg 5.399486 -0.000000 -0.000000
RightFoot -23.964528 -17.326783 40.672970
RightToeBase 17.834877 -0.000000 -0.000000
LeftUpLeg -104.286929 24.926809 3.843349
LeftLeg 130.851311 -0.000000 -0.000000
LeftFoot -37.570045 8.434788 -15.772693
LeftToeBase -9.889900 -0.000000 0.000000
Spine 39.137523 3.256312 -46.694079
RightShoulder -12.417847 5.143721 -49.150919
RightArm 35.157642 66.316452 8.491216
RightForeArm 2.832553 -0.000000 26.078015
RightHand 14.970181 -0.000000 -51.196605
RightHandThumb1 -24.326973 -0.000000 -32.862282
LeftShoulder -17.529859 41.184199 10.445158
LeftArm 93.602805 -36.013606 -131.309294
LeftForeArm -3.517784 0.000000 20.638099
LeftHand -30.531428 -0.000000 98.182642
LeftHandThumb1 -26.253704 0.000000 33.147579
Head 5.759333 -1.802340 -41.631360
850
root 26.180356 18.227272 -0.480826 0.858741 32.020456 -23.194694
RightUpLeg 16.759584 -5.699326 -32.335319
RightLeg 5.546751 -0.000000 -0.000000
RightFoot -24.110989 -17.431734 40.708919
RightToeBase 17.782087 -0.000000 -0.000000
LeftUpLeg -104.215363 24.753071 3.804686
LeftLeg 130.499494 -0.000000 -0.000000
LeftFoot -37.631707 8.434923 -15.769471
LeftToeBase -9.482203 -0.000000 0.000000
Spine 39.347351 3.377753 -46.728807
RightShoulder -11.936161 5.324861 -49.586693
RightArm 33.759390 65.886014 9.546095
RightForeArm 3.204913 -0.000000 27.522014
RightHand 14.505407 -0.000000 -51.240870
RightHandThumb1 -24.326973 -0.000000 -32.862282
LeftShoulder -17.254082 40.970307 10.666994
LeftArm 93.460813 -36.211473 -130.825169
LeftForeArm -3.640162 0.000000 20.954244
LeftHand -30.611638 -0.000000 98.007481
LeftHandThumb1 -26.253704 0.000000 33.147579
Head 5.811078 -2.055613 -41.070440
